<mxfile host="Electron" modified="2023-04-26T12:59:47.154Z" agent="Mozilla/5.0 (Macintosh; Intel Mac OS X 10_15_7) AppleWebKit/537.36 (KHTML, like Gecko) draw.io/21.2.1 Chrome/112.0.5615.87 Electron/24.1.2 Safari/537.36" etag="4iQrxS3p3LSDN5rn8psJ" version="21.2.1" type="device">
  <diagram name="Page-1" id="9Lc8diRp0244jIERF-EA">
    <mxGraphModel dx="825" dy="740" grid="1" gridSize="10" guides="1" tooltips="1" connect="1" arrows="1" fold="1" page="1" pageScale="1" pageWidth="827" pageHeight="1169" math="0" shadow="0">
      <root>
        <mxCell id="0" />
        <mxCell id="1" parent="0" />
        <mxCell id="eJwPZIkPQ0ylny-siOLM-2" value="UI" style="shape=umlLifeline;perimeter=lifelinePerimeter;whiteSpace=wrap;html=1;container=0;dropTarget=0;collapsible=0;recursiveResize=0;outlineConnect=0;portConstraint=eastwest;newEdgeStyle={&quot;edgeStyle&quot;:&quot;elbowEdgeStyle&quot;,&quot;elbow&quot;:&quot;vertical&quot;,&quot;curved&quot;:0,&quot;rounded&quot;:0};" parent="1" vertex="1">
          <mxGeometry x="220" y="160" width="100" height="300" as="geometry" />
        </mxCell>
        <mxCell id="eJwPZIkPQ0ylny-siOLM-3" value="Backend" style="shape=umlLifeline;perimeter=lifelinePerimeter;whiteSpace=wrap;html=1;container=0;dropTarget=0;collapsible=0;recursiveResize=0;outlineConnect=0;portConstraint=eastwest;newEdgeStyle={&quot;edgeStyle&quot;:&quot;elbowEdgeStyle&quot;,&quot;elbow&quot;:&quot;vertical&quot;,&quot;curved&quot;:0,&quot;rounded&quot;:0};" parent="1" vertex="1">
          <mxGeometry x="460" y="160" width="100" height="300" as="geometry" />
        </mxCell>
        <mxCell id="eJwPZIkPQ0ylny-siOLM-16" value="" style="html=1;points=[];perimeter=orthogonalPerimeter;outlineConnect=0;targetShapes=umlLifeline;portConstraint=eastwest;newEdgeStyle={&quot;edgeStyle&quot;:&quot;elbowEdgeStyle&quot;,&quot;elbow&quot;:&quot;vertical&quot;,&quot;curved&quot;:0,&quot;rounded&quot;:0};" parent="eJwPZIkPQ0ylny-siOLM-3" vertex="1">
          <mxGeometry x="45" y="199" width="10" height="80" as="geometry" />
        </mxCell>
        <mxCell id="eJwPZIkPQ0ylny-siOLM-19" value="" style="html=1;points=[];perimeter=orthogonalPerimeter;outlineConnect=0;targetShapes=umlLifeline;portConstraint=eastwest;newEdgeStyle={&quot;edgeStyle&quot;:&quot;elbowEdgeStyle&quot;,&quot;elbow&quot;:&quot;vertical&quot;,&quot;curved&quot;:0,&quot;rounded&quot;:0};" parent="eJwPZIkPQ0ylny-siOLM-3" vertex="1">
          <mxGeometry x="50" y="239" width="10" height="20" as="geometry" />
        </mxCell>
        <mxCell id="eJwPZIkPQ0ylny-siOLM-20" value="validate &amp;amp;&lt;br&gt;transform to &lt;br&gt;service account &lt;br&gt;for internal use" style="html=1;align=left;spacingLeft=2;endArrow=block;rounded=0;edgeStyle=orthogonalEdgeStyle;curved=0;rounded=0;" parent="eJwPZIkPQ0ylny-siOLM-3" target="eJwPZIkPQ0ylny-siOLM-19" edge="1">
          <mxGeometry relative="1" as="geometry">
            <mxPoint x="55" y="219" as="sourcePoint" />
            <Array as="points">
              <mxPoint x="85" y="219" />
              <mxPoint x="85" y="249" />
            </Array>
          </mxGeometry>
        </mxCell>
        <mxCell id="eJwPZIkPQ0ylny-siOLM-4" value="Cookies" style="shape=umlLifeline;perimeter=lifelinePerimeter;whiteSpace=wrap;html=1;container=0;dropTarget=0;collapsible=0;recursiveResize=0;outlineConnect=0;portConstraint=eastwest;newEdgeStyle={&quot;edgeStyle&quot;:&quot;elbowEdgeStyle&quot;,&quot;elbow&quot;:&quot;vertical&quot;,&quot;curved&quot;:0,&quot;rounded&quot;:0};" parent="1" vertex="1">
          <mxGeometry x="340" y="160" width="100" height="300" as="geometry" />
        </mxCell>
        <mxCell id="eJwPZIkPQ0ylny-siOLM-24" value="" style="html=1;points=[];perimeter=orthogonalPerimeter;outlineConnect=0;targetShapes=umlLifeline;portConstraint=eastwest;newEdgeStyle={&quot;edgeStyle&quot;:&quot;elbowEdgeStyle&quot;,&quot;elbow&quot;:&quot;vertical&quot;,&quot;curved&quot;:0,&quot;rounded&quot;:0};" parent="eJwPZIkPQ0ylny-siOLM-4" vertex="1">
          <mxGeometry x="45" y="110" width="10" height="20" as="geometry" />
        </mxCell>
        <mxCell id="eJwPZIkPQ0ylny-siOLM-27" value="" style="html=1;points=[];perimeter=orthogonalPerimeter;outlineConnect=0;targetShapes=umlLifeline;portConstraint=eastwest;newEdgeStyle={&quot;edgeStyle&quot;:&quot;elbowEdgeStyle&quot;,&quot;elbow&quot;:&quot;vertical&quot;,&quot;curved&quot;:0,&quot;rounded&quot;:0};" parent="eJwPZIkPQ0ylny-siOLM-4" vertex="1">
          <mxGeometry x="45" y="140" width="10" height="40" as="geometry" />
        </mxCell>
        <mxCell id="eJwPZIkPQ0ylny-siOLM-5" value="Identity Provider" style="shape=umlLifeline;perimeter=lifelinePerimeter;whiteSpace=wrap;html=1;container=0;dropTarget=0;collapsible=0;recursiveResize=0;outlineConnect=0;portConstraint=eastwest;newEdgeStyle={&quot;edgeStyle&quot;:&quot;elbowEdgeStyle&quot;,&quot;elbow&quot;:&quot;vertical&quot;,&quot;curved&quot;:0,&quot;rounded&quot;:0};" parent="1" vertex="1">
          <mxGeometry x="580" y="160" width="100" height="300" as="geometry" />
        </mxCell>
        <mxCell id="eJwPZIkPQ0ylny-siOLM-21" value="" style="html=1;points=[];perimeter=orthogonalPerimeter;outlineConnect=0;targetShapes=umlLifeline;portConstraint=eastwest;newEdgeStyle={&quot;edgeStyle&quot;:&quot;elbowEdgeStyle&quot;,&quot;elbow&quot;:&quot;vertical&quot;,&quot;curved&quot;:0,&quot;rounded&quot;:0};" parent="eJwPZIkPQ0ylny-siOLM-5" vertex="1">
          <mxGeometry x="45" y="50" width="10" height="50" as="geometry" />
        </mxCell>
        <mxCell id="eJwPZIkPQ0ylny-siOLM-17" value="call gRPC/HTTP endpoint with user token" style="html=1;verticalAlign=bottom;endArrow=block;edgeStyle=elbowEdgeStyle;elbow=vertical;curved=0;rounded=0;" parent="1" target="eJwPZIkPQ0ylny-siOLM-16" edge="1">
          <mxGeometry relative="1" as="geometry">
            <mxPoint x="270.07446808510645" y="369" as="sourcePoint" />
            <Array as="points">
              <mxPoint x="400" y="369" />
            </Array>
          </mxGeometry>
        </mxCell>
        <mxCell id="eJwPZIkPQ0ylny-siOLM-18" value="return data" style="html=1;verticalAlign=bottom;endArrow=open;dashed=1;endSize=8;edgeStyle=elbowEdgeStyle;elbow=vertical;curved=0;rounded=0;entryX=0.501;entryY=0.8;entryDx=0;entryDy=0;entryPerimeter=0;" parent="1" edge="1">
          <mxGeometry relative="1" as="geometry">
            <mxPoint x="270.10000000000014" y="428" as="targetPoint" />
            <Array as="points">
              <mxPoint x="270" y="428" />
            </Array>
            <mxPoint x="505" y="428.0000000000001" as="sourcePoint" />
          </mxGeometry>
        </mxCell>
        <mxCell id="eJwPZIkPQ0ylny-siOLM-22" value="Request authentication" style="html=1;verticalAlign=bottom;endArrow=block;edgeStyle=elbowEdgeStyle;elbow=vertical;curved=0;rounded=0;" parent="1" source="eJwPZIkPQ0ylny-siOLM-2" target="eJwPZIkPQ0ylny-siOLM-21" edge="1">
          <mxGeometry x="-0.0001" relative="1" as="geometry">
            <mxPoint x="555" y="210" as="sourcePoint" />
            <Array as="points">
              <mxPoint x="420" y="220" />
              <mxPoint x="460" y="230" />
              <mxPoint x="430" y="220" />
            </Array>
            <mxPoint as="offset" />
          </mxGeometry>
        </mxCell>
        <mxCell id="eJwPZIkPQ0ylny-siOLM-23" value="JWT token" style="html=1;verticalAlign=bottom;endArrow=open;dashed=1;endSize=8;edgeStyle=elbowEdgeStyle;elbow=vertical;curved=0;rounded=0;" parent="1" source="eJwPZIkPQ0ylny-siOLM-21" target="eJwPZIkPQ0ylny-siOLM-2" edge="1">
          <mxGeometry relative="1" as="geometry">
            <mxPoint x="555" y="285" as="targetPoint" />
            <Array as="points">
              <mxPoint x="570" y="250" />
            </Array>
          </mxGeometry>
        </mxCell>
        <mxCell id="eJwPZIkPQ0ylny-siOLM-25" value="save token" style="html=1;verticalAlign=bottom;endArrow=block;edgeStyle=elbowEdgeStyle;elbow=vertical;curved=0;rounded=0;" parent="1" source="eJwPZIkPQ0ylny-siOLM-2" target="eJwPZIkPQ0ylny-siOLM-24" edge="1">
          <mxGeometry x="0.0423" relative="1" as="geometry">
            <mxPoint x="315" y="270" as="sourcePoint" />
            <Array as="points">
              <mxPoint x="330" y="280" />
              <mxPoint x="270" y="270" />
            </Array>
            <mxPoint as="offset" />
          </mxGeometry>
        </mxCell>
        <mxCell id="eJwPZIkPQ0ylny-siOLM-28" value="read token" style="html=1;verticalAlign=bottom;endArrow=block;edgeStyle=elbowEdgeStyle;elbow=vertical;curved=0;rounded=0;" parent="1" source="eJwPZIkPQ0ylny-siOLM-2" target="eJwPZIkPQ0ylny-siOLM-27" edge="1">
          <mxGeometry relative="1" as="geometry">
            <mxPoint x="315" y="290" as="sourcePoint" />
            <Array as="points">
              <mxPoint x="330" y="310" />
              <mxPoint x="350" y="300" />
            </Array>
          </mxGeometry>
        </mxCell>
        <mxCell id="eJwPZIkPQ0ylny-siOLM-29" value="token" style="html=1;verticalAlign=bottom;endArrow=open;dashed=1;endSize=8;edgeStyle=elbowEdgeStyle;elbow=vertical;curved=0;rounded=0;" parent="1" source="eJwPZIkPQ0ylny-siOLM-27" target="eJwPZIkPQ0ylny-siOLM-2" edge="1">
          <mxGeometry relative="1" as="geometry">
            <mxPoint x="315" y="365" as="targetPoint" />
            <Array as="points">
              <mxPoint x="353" y="330" />
            </Array>
          </mxGeometry>
        </mxCell>
      </root>
    </mxGraphModel>
  </diagram>
</mxfile>
